<svg width="20" height="18" viewBox="0 0 20 18" fill="none" xmlns="http://www.w3.org/2000/svg">
<path fill-rule="evenodd" clip-rule="evenodd" d="M0 2C0 0.895431 0.895431 0 2 0H18C19.1046 0 20 0.89543 20 2V14.9906V15.008V16C20 17.1046 19.1046 18 18 18H2C0.895432 18 0 17.1046 0 16V14.0055V13.9934V2ZM18 2V12.1492L16.4788 10.2477C15.7342 9.31686 14.3458 9.23996 13.5029 10.0829L12.0672 11.5185L8.52568 7.2687C7.73331 6.31785 6.27623 6.30774 5.47073 7.24749L2 11.2967V2H18ZM2 16V14.3699L6.98924 8.54907L10.5308 12.7989C11.2837 13.7024 12.6498 13.7643 13.4814 12.9327L14.9171 11.4971L18 15.3507V16H2ZM13 4C11.8954 4 11 4.89543 11 6C11 7.10457 11.8954 8 13 8C14.1046 8 15 7.10457 15 6C15 4.89543 14.1046 4 13 4Z" fill="#A5A5A5"/>
</svg>
